<svg version="1.2" xmlns="http://www.w3.org/2000/svg" viewBox="0 0 1112 1112" width="100" height="100"><style>.a{fill:#fefefe}</style><path fill-rule="evenodd" class="a" d="M889.2 596c0 19-13.2 28.6-39.5 28.6h-41.9v-56.2h40.6q20.3 0 30.6 6.5c6.8 4.4 10.2 11.5 10.2 21.1zm-7.7-81.2q0 6.8-3.3 12.3-4.2 7.8-12.2 10.5-7.9 2.8-22.5 2.8h-35.7v-49.8h31.7q21.2 0 31.6 4.8 10.4 4.8 10.4 19.4z"/><path fill-rule="evenodd" class="a" d="M1112.9 555.6c0 307.3-249.1 556.4-556.5 556.4C249.1 1112 0 862.9 0 555.6 0 248.2 249.1-.9 556.4-.9c307.4 0 556.5 249.1 556.5 556.5zM354 480.4q0-11.2-4.8-16.8-4.9-5.5-13.3-5.5-8.1 0-12.9 5.5-4.8 5.6-4.8 16.8v114.5l-75-113.5q-3.1-4.9-6.1-9.6c-1.9-3-3.9-5.5-5.7-7.4q-2.9-2.9-6.6-4.6-3.8-1.7-9-1.7-6.7 0-12.5 3.7c-3.8 2.5-6.6 5.7-8.3 9.6q-2.1 5.4-2 14.9v148.5c0 7.2 1.6 12.8 4.9 16.6q5 5.7 13.3 5.7c5.3 0 9.7-1.9 13.1-5.6q5.1-5.7 5.1-16.7V522l73.2 112.1q3.1 4.6 6.3 9c2.1 3 4.3 5.5 6.8 7.7q3.7 3.3 7.9 4.8c2.8 1 5.9 1.5 9.4 1.5q21 0 21-25.3zm204.4 0q-.1-11.2-4.9-16.8-4.9-5.6-13.3-5.6-8.1 0-12.9 5.6-4.8 5.6-4.8 16.8v114.4l-75-113.4q-3.1-5-6.1-9.6c-1.9-3-3.9-5.6-5.8-7.5-1.8-1.9-4-3.4-6.5-4.6q-3.7-1.7-9-1.7-6.7 0-12.5 3.8c-3.8 2.4-6.6 5.7-8.2 9.6q-2.2 5.4-2.2 14.8v148.6c0 7.2 1.7 12.8 5 16.6 3.4 3.8 7.8 5.7 13.3 5.7 5.3 0 9.7-1.9 13.1-5.7q5.2-5.6 5.2-16.6V522l73.1 112.1c2.1 3.1 4.2 6.1 6.3 9q3.1 4.4 6.8 7.7c2.5 2.2 5.1 3.8 7.9 4.8q4.2 1.5 9.5 1.5 21 0 21-25.4zm187.6-2.9q0-.5-.1-1.1v-10.5c0-2.5-2-4.6-4.5-4.6h-42.3c-.2 0-.3 0-.5.1h-96.5q-9.6 0-14.7 4.3c-3.3 2.9-5 6.8-5 11.8V489c0 2.5 2 4.5 4.5 4.5h57.7v139.9q0 11.9 5.5 17.8c3.6 4 8.3 5.9 14.1 5.9q8.5 0 13.9-5.8 5.4-5.9 5.4-17.9V493.5H726q10 0 15-4.4 5-4.3 5-11.6zM928.8 599c0-23.3-12.7-39-38-47q28.9-13.4 28.9-42.3 0-8.4-2.8-16c-1.8-5-4.5-9.6-8-13.8q-5.2-6.2-12.1-10.3c-5.3-3.2-11.3-5.4-18.1-6.5-6.7-1.2-14.7-1.7-23.9-1.7h-62.4c-8.2 0-14.3 1.8-18 5.5q-5.6 5.6-5.6 18.4v144.6q0 12.5 5.5 18.2 5.4 5.8 18.1 5.8h58.9q15.2 0 26.6-1.6c7.7-1 14.4-2.7 20.3-5.2 9.3-4 16.8-10.4 22.3-19q8.3-13 8.3-29.1z"/></svg>