{
	"asset":{
		"generator":"Khronos glTF Blender I/O v3.6.27",
		"version":"2.0"
	},
	"extensionsUsed":[
		"KHR_materials_emissive_strength"
	],
	"scene":0,
	"scenes":[
		{
			"name":"Scene",
			"nodes":[
				0,
				1,
				2
			]
		}
	],
	"nodes":[
		{
			"mesh":0,
			"name":"Plane",
			"scale":[
				0.9763290286064148,
				0.9763290286064148,
				0.9763290286064148
			]
		},
		{
			"mesh":1,
			"name":"Sphere",
			"scale":[
				5.42774772644043,
				5.42774772644043,
				5.42774772644043
			]
		},
		{
			"mesh":2,
			"name":"Cube",
			"rotation":[
				0.49208781123161316,
				-0.0005010196473449469,
				0.04020155966281891,
				0.869616687297821
			],
			"scale":[
				0.24348419904708862,
				0.24348419904708862,
				0.24348419904708862
			],
			"translation":[
				-0.813431441783905,
				4.817115783691406,
				8.098487854003906
			]
		}
	],
	"materials":[
		{
			"doubleSided":true,
			"emissiveFactor":[
				1,
				1,
				1
			],
			"extensions":{
				"KHR_materials_emissive_strength":{
					"emissiveStrength":2.5
				}
			},
			"name":"Material",
			"pbrMetallicRoughness":{
				"baseColorFactor":[
					0,
					0,
					0,
					1
				]
			}
		},
		{
			"doubleSided":true,
			"name":"Material.001",
			"pbrMetallicRoughness":{
				"baseColorFactor":[
					0,
					0.5028862953186035,
					0.001517776632681489,
					1
				],
				"metallicFactor":0
			}
		},
		{
			"doubleSided":true,
			"name":"Material.002",
			"pbrMetallicRoughness":{
				"baseColorFactor":[
					0.027320340275764465,
					0.06300968676805496,
					0.7991027235984802,
					1
				],
				"metallicFactor":0.7355371713638306,
				"roughnessFactor":0.5
			}
		},
		{
			"doubleSided":true,
			"emissiveFactor":[
				0.6999999284744263,
				0,
				0.00023623405055305663
			],
			"name":"Material.050",
			"pbrMetallicRoughness":{
				"baseColorFactor":[
					0,
					0,
					0,
					1
				]
			}
		}
	],
	"meshes":[
		{
			"name":"Plane.001",
			"primitives":[
				{
					"attributes":{
						"POSITION":0,
						"NORMAL":1
					},
					"indices":2,
					"material":0
				}
			]
		},
		{
			"name":"Sphere.001",
			"primitives":[
				{
					"attributes":{
						"POSITION":3,
						"NORMAL":4,
						"TEXCOORD_0":5
					},
					"indices":6,
					"material":1
				},
				{
					"attributes":{
						"POSITION":7,
						"NORMAL":8,
						"TEXCOORD_0":9
					},
					"indices":10,
					"material":2
				}
			]
		},
		{
			"name":"Cube",
			"primitives":[
				{
					"attributes":{
						"POSITION":11,
						"NORMAL":12,
						"TEXCOORD_0":13
					},
					"indices":14,
					"material":3
				}
			]
		}
	],
	"accessors":[
		{
			"bufferView":0,
			"componentType":5126,
			"count":420762,
			"max":[
				8.016439437866211,
				8.694991111755371,
				8.356382369995117
			],
			"min":[
				-7.7173991203308105,
				-5.97281551361084,
				-9.504087448120117
			],
			"type":"VEC3"
		},
		{
			"bufferView":1,
			"componentType":5126,
			"count":420762,
			"type":"VEC3"
		},
		{
			"bufferView":2,
			"componentType":5125,
			"count":641148,
			"type":"SCALAR"
		},
		{
			"bufferView":3,
			"componentType":5126,
			"count":88455,
			"max":[
				1.733439326286316,
				1.7348964214324951,
				1.7175602912902832
			],
			"min":[
				-1.4729256629943848,
				-1.7457776069641113,
				-1.7261602878570557
			],
			"type":"VEC3"
		},
		{
			"bufferView":4,
			"componentType":5126,
			"count":88455,
			"type":"VEC3"
		},
		{
			"bufferView":5,
			"componentType":5126,
			"count":88455,
			"type":"VEC2"
		},
		{
			"bufferView":6,
			"componentType":5125,
			"count":91251,
			"type":"SCALAR"
		},
		{
			"bufferView":7,
			"componentType":5126,
			"count":15360,
			"max":[
				1.725523829460144,
				1.725523829460144,
				1.7255237102508545
			],
			"min":[
				-1.7255237102508545,
				-1.725523829460144,
				-1.7255237102508545
			],
			"type":"VEC3"
		},
		{
			"bufferView":8,
			"componentType":5126,
			"count":15360,
			"type":"VEC3"
		},
		{
			"bufferView":9,
			"componentType":5126,
			"count":15360,
			"type":"VEC2"
		},
		{
			"bufferView":10,
			"componentType":5123,
			"count":15360,
			"type":"SCALAR"
		},
		{
			"bufferView":11,
			"componentType":5126,
			"count":5000,
			"max":[
				35.191532135009766,
				1.2536356449127197,
				10.250310897827148
			],
			"min":[
				-32.751075744628906,
				-74.7378158569336,
				-37.13854217529297
			],
			"type":"VEC3"
		},
		{
			"bufferView":12,
			"componentType":5126,
			"count":5000,
			"type":"VEC3"
		},
		{
			"bufferView":13,
			"componentType":5126,
			"count":5000,
			"type":"VEC2"
		},
		{
			"bufferView":14,
			"componentType":5123,
			"count":6000,
			"type":"SCALAR"
		}
	],
	"bufferViews":[
		{
			"buffer":0,
			"byteLength":5049144,
			"byteOffset":0,
			"target":34962
		},
		{
			"buffer":0,
			"byteLength":5049144,
			"byteOffset":5049144,
			"target":34962
		},
		{
			"buffer":0,
			"byteLength":2564592,
			"byteOffset":10098288,
			"target":34963
		},
		{
			"buffer":0,
			"byteLength":1061460,
			"byteOffset":12662880,
			"target":34962
		},
		{
			"buffer":0,
			"byteLength":1061460,
			"byteOffset":13724340,
			"target":34962
		},
		{
			"buffer":0,
			"byteLength":707640,
			"byteOffset":14785800,
			"target":34962
		},
		{
			"buffer":0,
			"byteLength":365004,
			"byteOffset":15493440,
			"target":34963
		},
		{
			"buffer":0,
			"byteLength":184320,
			"byteOffset":15858444,
			"target":34962
		},
		{
			"buffer":0,
			"byteLength":184320,
			"byteOffset":16042764,
			"target":34962
		},
		{
			"buffer":0,
			"byteLength":122880,
			"byteOffset":16227084,
			"target":34962
		},
		{
			"buffer":0,
			"byteLength":30720,
			"byteOffset":16349964,
			"target":34963
		},
		{
			"buffer":0,
			"byteLength":60000,
			"byteOffset":16380684,
			"target":34962
		},
		{
			"buffer":0,
			"byteLength":60000,
			"byteOffset":16440684,
			"target":34962
		},
		{
			"buffer":0,
			"byteLength":40000,
			"byteOffset":16500684,
			"target":34962
		},
		{
			"buffer":0,
			"byteLength":12000,
			"byteOffset":16540684,
			"target":34963
		}
	],
	"buffers":[
		{
			"byteLength":16552684,
			"uri":"planet2.bin"
		}
	]
}
