{
	"asset":{
		"generator":"Khronos glTF Blender I/O v4.1.63",
		"version":"2.0"
	},
	"extensionsUsed":[
		"KHR_materials_specular",
		"KHR_materials_ior"
	],
	"scene":0,
	"scenes":[
		{
			"name":"Scene",
			"nodes":[
				0,
				1,
				2
			]
		}
	],
	"nodes":[
		{
			"mesh":0,
			"name":"Cube.033",
			"scale":[
				0.24348419904708862,
				0.24348419904708862,
				0.24348419904708862
			],
			"translation":[
				14.100919723510742,
				1.4249200820922852,
				-3.94181489944458
			]
		},
		{
			"mesh":1,
			"name":"Sphere",
			"scale":[
				5.42774772644043,
				5.42774772644043,
				5.42774772644043
			]
		},
		{
			"mesh":2,
			"name":"Cube",
			"rotation":[
				0.49208781123161316,
				-0.0005010196473449469,
				0.04020155966281891,
				0.869616687297821
			],
			"scale":[
				0.24348419904708862,
				0.24348419904708862,
				0.24348419904708862
			],
			"translation":[
				-0.813431441783905,
				4.817115783691406,
				8.098487854003906
			]
		}
	],
	"materials":[
		{
			"doubleSided":true,
			"name":"Material.053",
			"pbrMetallicRoughness":{
				"baseColorFactor":[
					0.9862549304962158,
					0.0023801173083484173,
					0.013774522580206394,
					1
				],
				"metallicFactor":0,
				"roughnessFactor":0
			}
		},
		{
			"doubleSided":true,
			"name":"Material.001",
			"pbrMetallicRoughness":{
				"baseColorFactor":[
					0,
					0.5028862953186035,
					0.001517776632681489,
					1
				],
				"metallicFactor":0
			}
		},
		{
			"doubleSided":true,
			"name":"Material.002",
			"pbrMetallicRoughness":{
				"baseColorFactor":[
					0.027320340275764465,
					0.06300968676805496,
					0.7991027235984802,
					1
				],
				"metallicFactor":0.7355371713638306,
				"roughnessFactor":0.5
			}
		},
		{
			"doubleSided":true,
			"extensions":{
				"KHR_materials_specular":{
					"specularFactor":0.42975205183029175
				},
				"KHR_materials_ior":{
					"ior":1.4500000476837158
				}
			},
			"name":"Material.050",
			"pbrMetallicRoughness":{
				"baseColorFactor":[
					1,
					0.8825165033340454,
					0.28512221574783325,
					1
				],
				"metallicFactor":0,
				"roughnessFactor":0.1652892529964447
			}
		}
	],
	"meshes":[
		{
			"name":"Cube.050",
			"primitives":[
				{
					"attributes":{
						"POSITION":0,
						"NORMAL":1,
						"TEXCOORD_0":2
					},
					"indices":3,
					"material":0
				}
			]
		},
		{
			"name":"Sphere.001",
			"primitives":[
				{
					"attributes":{
						"POSITION":4,
						"NORMAL":5,
						"TEXCOORD_0":6
					},
					"indices":7,
					"material":1
				},
				{
					"attributes":{
						"POSITION":8,
						"NORMAL":9,
						"TEXCOORD_0":10
					},
					"indices":11,
					"material":2
				}
			]
		},
		{
			"name":"Cube",
			"primitives":[
				{
					"attributes":{
						"POSITION":12,
						"NORMAL":13,
						"TEXCOORD_0":14
					},
					"indices":15,
					"material":3
				}
			]
		}
	],
	"accessors":[
		{
			"bufferView":0,
			"componentType":5126,
			"count":100,
			"max":[
				0.2818974256515503,
				1.2536356449127197,
				0.2663702964782715
			],
			"min":[
				-0.2767246961593628,
				-1.4347604513168335,
				-0.2649054527282715
			],
			"type":"VEC3"
		},
		{
			"bufferView":1,
			"componentType":5126,
			"count":100,
			"type":"VEC3"
		},
		{
			"bufferView":2,
			"componentType":5126,
			"count":100,
			"type":"VEC2"
		},
		{
			"bufferView":3,
			"componentType":5123,
			"count":120,
			"type":"SCALAR"
		},
		{
			"bufferView":4,
			"componentType":5126,
			"count":88455,
			"max":[
				1.733439326286316,
				1.7348964214324951,
				1.7175602912902832
			],
			"min":[
				-1.4729256629943848,
				-1.7457776069641113,
				-1.7261602878570557
			],
			"type":"VEC3"
		},
		{
			"bufferView":5,
			"componentType":5126,
			"count":88455,
			"type":"VEC3"
		},
		{
			"bufferView":6,
			"componentType":5126,
			"count":88455,
			"type":"VEC2"
		},
		{
			"bufferView":7,
			"componentType":5125,
			"count":91251,
			"type":"SCALAR"
		},
		{
			"bufferView":8,
			"componentType":5126,
			"count":15360,
			"max":[
				1.725523829460144,
				1.725523829460144,
				1.7255237102508545
			],
			"min":[
				-1.7255237102508545,
				-1.725523829460144,
				-1.7255237102508545
			],
			"type":"VEC3"
		},
		{
			"bufferView":9,
			"componentType":5126,
			"count":15360,
			"type":"VEC3"
		},
		{
			"bufferView":10,
			"componentType":5126,
			"count":15360,
			"type":"VEC2"
		},
		{
			"bufferView":11,
			"componentType":5123,
			"count":15360,
			"type":"SCALAR"
		},
		{
			"bufferView":12,
			"componentType":5126,
			"count":5000,
			"max":[
				35.191532135009766,
				1.2536356449127197,
				10.250310897827148
			],
			"min":[
				-32.751075744628906,
				-74.7378158569336,
				-37.13854217529297
			],
			"type":"VEC3"
		},
		{
			"bufferView":13,
			"componentType":5126,
			"count":5000,
			"type":"VEC3"
		},
		{
			"bufferView":14,
			"componentType":5126,
			"count":5000,
			"type":"VEC2"
		},
		{
			"bufferView":15,
			"componentType":5123,
			"count":6000,
			"type":"SCALAR"
		}
	],
	"bufferViews":[
		{
			"buffer":0,
			"byteLength":1200,
			"byteOffset":0,
			"target":34962
		},
		{
			"buffer":0,
			"byteLength":1200,
			"byteOffset":1200,
			"target":34962
		},
		{
			"buffer":0,
			"byteLength":800,
			"byteOffset":2400,
			"target":34962
		},
		{
			"buffer":0,
			"byteLength":240,
			"byteOffset":3200,
			"target":34963
		},
		{
			"buffer":0,
			"byteLength":1061460,
			"byteOffset":3440,
			"target":34962
		},
		{
			"buffer":0,
			"byteLength":1061460,
			"byteOffset":1064900,
			"target":34962
		},
		{
			"buffer":0,
			"byteLength":707640,
			"byteOffset":2126360,
			"target":34962
		},
		{
			"buffer":0,
			"byteLength":365004,
			"byteOffset":2834000,
			"target":34963
		},
		{
			"buffer":0,
			"byteLength":184320,
			"byteOffset":3199004,
			"target":34962
		},
		{
			"buffer":0,
			"byteLength":184320,
			"byteOffset":3383324,
			"target":34962
		},
		{
			"buffer":0,
			"byteLength":122880,
			"byteOffset":3567644,
			"target":34962
		},
		{
			"buffer":0,
			"byteLength":30720,
			"byteOffset":3690524,
			"target":34963
		},
		{
			"buffer":0,
			"byteLength":60000,
			"byteOffset":3721244,
			"target":34962
		},
		{
			"buffer":0,
			"byteLength":60000,
			"byteOffset":3781244,
			"target":34962
		},
		{
			"buffer":0,
			"byteLength":40000,
			"byteOffset":3841244,
			"target":34962
		},
		{
			"buffer":0,
			"byteLength":12000,
			"byteOffset":3881244,
			"target":34963
		}
	],
	"buffers":[
		{
			"byteLength":3893244,
			"uri":"planet1copy.bin"
		}
	]
}
