<?xml version="1.0" encoding="UTF-8" standalone="no"?>
<!-- Created with Inkscape (http://www.inkscape.org/) -->
<svg width="2750mm" height="1200mm" viewBox="0 0 2750 1200" version="1.1" id="svg1" xml:space="preserve" inkscape:version="1.3.2 (091e20e, 2023-11-25, custom)" sodipodi:docname="world_map2.svg" xmlns:inkscape="http://www.inkscape.org/namespaces/inkscape" xmlns:sodipodi="http://sodipodi.sourceforge.net/DTD/sodipodi-0.dtd" xmlns="http://www.w3.org/2000/svg" xmlns:svg="http://www.w3.org/2000/svg">
	<namedview id="namedview42" pagecolor="#ffffff" bordercolor="#000000" borderopacity="0.25" inkscape:showpageshadow="2" inkscape:pageopacity="0.0" inkscape:pagecheckerboard="0" inkscape:deskcolor="#d1d1d1" inkscape:document-units="mm" inkscape:zoom="0.33090883" inkscape:cx="4185.4428" inkscape:cy="1403.7099" inkscape:window-width="1920" inkscape:window-height="1001" inkscape:window-x="-9" inkscape:window-y="-9" inkscape:window-maximized="1" inkscape:current-layer="layer1" />
	<namedview id="namedview1" pagecolor="#ffffff" bordercolor="#000000" borderopacity="0.25" inkscape:showpageshadow="2" inkscape:pageopacity="0.0" inkscape:pagecheckerboard="0" inkscape:deskcolor="#d1d1d1" inkscape:document-units="mm" inkscape:zoom="0.12393837" inkscape:cx="5857.7501" inkscape:cy="2674.7165" inkscape:window-width="1920" inkscape:window-height="1001" inkscape:window-x="-9" inkscape:window-y="-9" inkscape:window-maximized="1" inkscape:current-layer="layer4" />
	<style id="style_css_sheet" type="text/css">
      /*map*/
		#layer2 path {
		fill:#f7f7f7;
		fill-opacity:1;
		stroke:#002a41;
		stroke-width:2;
		stroke-linecap:round;
		stroke-linejoin:round;
		stroke-opacity:1;
		}
		/*kroužkuju*/
		ellipse {
		fill:#ffb81c;
		fill-opacity:1;
		stroke:#414141;
		stroke-width:1;
		stroke-dasharray:none;
		stroke-opacity:1;
		}
      /*spojky*/
      #layer1 path {
         fill:none;
         fill-opacity:0;
         stroke:#ffb81c;
         stroke-width:2;
         stroke-linecap:round;
         stroke-linejoin:round;
      }
      /*east line*/
      #path42 {
	      stroke-dasharray: 1;
	      stroke-dashoffset: 1;
	      animation: dash_east 15s linear infinite;
	   }
      /*west_line*/
      #path43 {
	      stroke-dasharray: 1;
	      stroke-dashoffset: 0;
	      animation: dash_west 15s linear infinite;
	   }

	   @keyframes dash_east {
	      from {
	      	stroke-dashoffset: 1;
	      }
	      to {
	      	stroke-dashoffset: -1;
	      }
      }
      
      @keyframes dash_west {
	      from {
		      stroke-dashoffset: 0;
	      }
	      to {
		      stroke-dashoffset: -2;
	      }
      }
	</style>
	<g inkscape:groupmode="layer" id="layer2" inkscape:label="map">
		<path d="m 558.24955,119.54867 -77.9201,-11.74139 -77.92011,22.41537 -4.26958,1.0674 8.53919,9.60659 -41.62857,6.40439 -1.06741,12.80879 21.34799,-2.1348 -46.96555,24.55017 -8.53919,19.21318 13.87618,5.337 -113.14426,40.56115 148.36842,-36.29156 50.16775,-13.87618 42.69595,1.06739 5.33699,74.71793 4.2696,19.21316 -25.61756,37.35896 -5.33699,16.01099 -10.67401,10.67398 3.2022,50.16776 12.8088,8.53918 7.47178,33.08935 24.55018,56.57215 9.60657,-1.06741 -19.21316,-73.6505 7.47178,3.2022 35.22416,83.2571 -5.33699,18.14578 65.11134,35.22414 17.07838,-5.33699 18.14578,18.14579 28.81977,8.53919 12.80877,28.81976 37.35895,24.55019 13.87621,-13.87621 6.40437,21.34799 -1.06738,19.21317 -23.48278,24.55018 -5.33699,42.69594 5.33699,16.011 10.67398,7.47178 24.55018,53.36995 8.53919,14.94359 39.49375,24.55016 5.33699,16.01099 1.06741,81.12231 8.53919,25.61757 1.0674,49.1003 9.60658,30.9546 11.74138,66.1787 16.011,23.4828 49.10034,25.6176 33.08935,-4.2696 -40.56116,-28.8198 9.6066,-36.2916 -18.14578,-12.8087 13.87617,-10.674 2.13482,-28.8198 -1.06741,-18.1458 29.88718,-2.1348 7.47178,-20.2806 -9.60657,-10.6739 20.28057,1.0674 35.22414,-57.63956 -2.13479,-21.34799 45.89819,-30.95455 17.0783,-41.62856 -7.4717,-34.15676 30.9545,-42.69597 -6.4044,-28.81977 -35.2241,-21.34795 -27.75241,-1.06741 -10.67398,-6.4044 -21.34799,-17.07838 -16.01097,-3.2022 1.06739,-8.53919 -11.74139,-21.34796 -17.07838,-11.74138 -23.48278,-4.26961 -20.28057,-21.34799 -9.60657,-9.60657 -38.42637,-7.4718 -41.62856,-19.21317 -27.75236,13.87618 -11.74138,20.28057 -17.07838,-9.60657 -17.07838,4.26958 -6.4044,-48.03293 -11.74139,-13.87621 -24.55015,1.06741 18.14576,-45.89814 h -32.02197 l -10.67398,21.34798 -26.68497,1.06739 -1.06739,-55.50474 18.14576,-25.61757 21.34799,-6.4044 12.8088,5.33702 14.94356,-10.67401 35.22416,3.2022 3.2022,34.15676 6.4044,7.4718 12.80877,-7.4718 v -40.56116 l 50.16775,-40.56115 8.53919,-21.34796 49.10034,-32.02197 6.4044,-18.14578 21.34798,-8.53919 3.2022,13.87618 50.16773,-21.34799 -2.13479,-12.80877 -19.21317,-1.06741 3.2022,-17.07837 36.29154,-8.53919 -12.80879,21.34798 41.62856,4.26958 8.53919,-18.14576 -13.87618,-6.40439 10.67398,-27.75238 -17.07838,-19.21318 -9.6066,-32.02196 -4.26958,-10.67399 -24.55018,19.21318 v -18.14578 l -24.55016,-14.94358 -23.48277,2.13479 -23.48278,32.02197 4.26961,14.94358 -23.48278,11.74139 -11.74139,25.61757 -11.74139,-6.4044 9.60658,-23.48277 H 781.3359 l -23.48275,-13.87618 -9.6066,-16.01098 59.77432,-30.95457 16.011,9.60659 29.88715,-7.47179 -10.67398,-16.01098 34.15675,-25.61757 -21.34796,-7.4718 -14.94358,13.87619 -10.67398,-10.67399 -6.4044,-19.21318 -22.41539,13.87619 -22.41537,4.26959 5.33699,-28.819765 -33.08935,5.336995 -60.84173,-12.808786 -30.95458,18.145776 17.0784,12.80879 12.80877,-7.47179 -5.33699,14.94358 -29.88717,-8.53919 -39.49375,-1.0674 z" id="path3" />
		<path d="m 1279.3265,286.05591 1.5096,6.79288 14.3405,4.90596 8.3024,14.71792 -4.5286,17.73698 -43.7763,-4.1512 -8.3025,6.79288 -2.6416,50.19186 13.9631,0.3774 9.0572,9.81194 9.4346,-5.66073 15.85,-0.75478 16.9822,-17.73698 -3.3964,-6.03811 11.3215,-11.32147 14.7179,-9.05719 0.3774,-8.67979 7.1702,-3.01905 15.4727,2.64165 15.0953,-10.56669 9.4346,4.90596 0.7547,6.03813 4.5286,2.64168 13.2084,12.07622 7.1703,0.3774 13.9631,13.20837 0.3774,8.67982 -1.5095,4.52858 3.7738,0.37738 7.1703,-10.9441 -4.1512,-4.1512 3.3964,-4.90596 7.925,4.15121 1.5096,-4.52861 -20.7561,-14.34052 -8.3024,-1.50953 -11.6988,-18.11436 v -7.54766 l 5.6607,-1.8869 10.5667,14.71792 12.831,8.30242 13.9632,6.41548 3.7738,16.98223 9.8119,9.43454 -1.1321,9.05719 16.2274,13.20839 2.6417,-12.45362 h 12.0762 l -10.944,-10.94409 -1.8869,-9.05719 20.3786,-7.92504 4.906,4.90599 14.3405,-4.52858 -7.925,-8.67982 4.5286,-13.96315 1.8869,-7.92503 11.6988,-14.7179 7.1703,1.8869 7.5477,0.75478 -7.5477,4.52858 11.6989,9.81194 20.756,-5.66073 -12.0762,-7.92504 13.5857,-7.54764 6.0381,6.41549 -6.0381,9.81194 23.0204,13.58577 12.0762,14.34055 -8.3024,3.01905 -21.8882,0.75475 -16.2274,-7.17026 -16.2275,0.37738 -13.9631,6.41551 -3.7739,-1.50953 -7.925,6.03811 -17.737,6.79288 12.4536,26.4168 16.9823,6.41548 5.6607,-6.41548 15.0953,6.03811 21.8882,-6.03811 -1.5096,19.2465 -3.7738,16.60483 -3.3964,10.18932 -12.4537,1.13215 7.5477,23.39771 6.7929,7.54764 7.5476,-3.39643 15.8501,29.05844 13.2084,16.98221 1.8869,14.34054 13.2084,13.20837 14.3405,23.39772 7.5477,32.4549 12.831,1.13215 50.9466,-23.39771 6.0381,-9.05719 15.0953,-4.15121 4.5286,-7.54763 15.8501,-8.30242 -1.1322,-9.05719 15.0953,-18.86913 -10.1893,-13.58577 -18.4917,-7.54764 -1.887,-15.0953 -28.3036,20.37866 -4.5286,-17.3596 -11.6989,-4.90596 -16.6048,-25.66201 9.0572,-2.64168 13.2084,18.49175 8.6797,1.13213 8.3025,7.92503 h 17.7369 l 6.4155,-2.64167 4.906,10.56671 35.0966,4.90596 32.4549,-1.8869 8.6798,12.83099 6.0381,2.26431 7.1703,7.17026 9.4345,-1.8869 -10.5667,7.17026 14.3405,13.58577 10.1894,-6.03811 5.2833,0.75475 -1.1321,12.45362 12.4536,37.36086 28.3037,61.89072 8.6798,-4.1512 12.831,-14.7179 -0.3774,-45.6633 44.1537,-47.1728 32.8323,-8.30241 11.6989,16.60482 14.7179,22.64296 0.3774,13.96315 h 11.6988 l 8.3024,-9.81194 17.3596,63.40025 -3.019,15.47268 8.3024,1.13215 4.5286,12.07624 6.0381,7.17027 3.7738,15.85004 20.0013,19.24651 6.7929,-3.39643 -7.5477,-10.94409 -0.7547,-14.34055 -13.9632,-18.11435 -7.5476,-1.13216 -4.5286,-17.73695 -7.1703,-9.05719 10.1893,-22.64293 24.1525,20.37863 6.7929,15.85007 13.9631,-7.92503 3.0191,-9.05719 13.9631,-6.41549 0.3774,-22.26556 -12.831,-23.39771 -17.7369,-16.98223 0.7547,-13.20837 12.4536,-10.56672 8.6798,-0.75477 4.906,10.94409 -8.3024,9.05719 4.5286,8.67979 8.6798,-2.64168 3.7738,-12.831 -3.7738,-3.39643 0.7547,-8.67981 43.7764,-16.22743 16.6048,-22.26558 7.9251,-34.34181 -24.5299,-33.20965 -9.8119,-9.43457 15.85,-16.9822 -1.8869,-5.28336 -16.2274,-4.1512 -6.7929,6.79288 -5.2834,-8.67979 -10.9441,-6.03813 16.9823,-13.96315 6.4154,11.32147 16.9823,-3.39643 9.8119,4.52858 3.0191,10.56672 10.9441,1.8869 12.0762,29.05845 20.0013,-8.67979 -17.3596,-27.54892 -12.0763,-10.56672 9.812,-11.69884 -2.2643,-9.05719 7.5476,-7.54764 11.6989,4.52858 9.0572,-8.30241 5.2833,-43.39897 -12.831,-26.0394 -21.5108,-20.00127 -14.7179,3.01906 -23.3977,-7.54765 16.6048,-34.3418 67.9289,2.26429 -0.7548,-21.88818 18.1144,0.37738 7.925,8.30242 9.4346,-11.32148 8.3024,9.43457 -11.6989,23.02032 1.8869,5.28336 1.8869,9.05718 46.0407,41.51207 3.7738,-8.6798 -4.5286,-6.4155 3.7739,-4.15121 -4.5286,-7.54765 8.6798,-2.26429 -10.5667,-13.58577 5.6607,-1.13215 -15.0953,-13.58577 -9.4346,-1.13214 -4.9059,-13.58577 11.3214,-1.88691 h 26.7942 l 12.0762,-14.71792 16.6048,-2.64168 -1.5095,-6.4155 -20.0012,-9.43456 4.5285,-6.4155 44.5312,8.30241 -6.0381,-9.43456 7.925,-1.50953 -15.0953,-8.6798 -25.662,-3.77382 -82.2694,-21.13342 -29.4358,-0.75476 -13.5858,3.39644 h -43.0216 l -8.3024,-7.92503 -32.8323,-1.88691 -13.2084,0.37738 -33.587,-9.81194 -41.1347,-1.509534 v 7.170264 l -35.8513,0.37738 -0.7548,5.66074 -35.4739,-18.49174 h -26.4168 l 1.5095,4.151206 -64.155,-8.679796 -24.5299,8.302416 23.7751,-15.095299 -14.3405,-11.321473 -54.7205,-4.15121 -5.6607,7.170269 -31.3228,1.50953 -61.1359,24.907247 -19.6239,-3.773831 -1.8869,11.321471 -15.4727,-11.321471 -10.9441,2.264297 -6.7929,11.698854 17.737,16.60483 -43.0216,-8.30241 -33.587,9.81194 -40.3799,9.81194 -2.2643,-9.43456 -17.737,-1.50953 9.0572,18.11436 -43.399,13.58577 -12.0763,-15.0953 31.7002,2.26429 6.0381,-8.30241 -9.812,-6.79289 -46.418,-13.96314 -38.1156,-7.17027 -45.6633,13.20838 -20.0013,21.13342 -16.2274,16.60483 -30.568,15.47268 5.2834,33.20966 15.4726,1.13214 12.831,-13.58576 11.3215,13.58576 4.906,18.86913 23.3977,-6.4155 0.3774,-16.22745 15.0953,-12.831 -13.5858,-7.54765 3.0191,-13.20839 20.756,-12.45362 3.7738,-10.56671 13.9632,1.50953 -19.6239,20.37865 4.5286,18.49175 10.9441,3.77382 28.3037,-4.90597 8.3024,3.77382 -10.9441,3.39645 -23.0203,0.37738 -12.0763,12.45362 -3.3964,18.86912 -4.906,6.79288 -12.4536,-1.88691 -21.5108,9.43456 -9.4346,-5.28335 -10.9441,-0.75477 0.7548,-16.98221 -6.4155,-8.67979 -15.8501,9.05718 4.1512,18.49174 -3.3964,4.52859 -17.737,0.75476 -20.0012,21.5108 -9.4346,8.67979 -9.0572,3.77383 -11.3215,-2.64168 1.8869,8.67982 z" id="path4" />
		<path d="m 1276.1188,274.92311 45.0972,-9.05716 -1.6982,-4.15121 5.8494,-9.05718 -9.0572,-2.07561 -3.2077,-12.26493 -8.3024,-6.22681 -6.4155,-7.73634 7.5476,-10.7554 -12.4536,-2.64168 8.1137,-11.13278 -5.472,4.52859 -10.5667,0.18869 -5.2834,6.4155 -5.6607,4.52859 10.5667,10.9441 -1.1322,9.62325 6.9816,-0.56608 2.6417,10.56671 -8.1137,1.50953 -4.906,11.88755 14.5292,2.64168 -10.1893,1.69822 z" id="path5" />
		<path d="m 1270.6467,230.76937 -9.0571,7.73634 -10.5667,1.88692 3.2077,8.30241 -6.7929,7.92503 2.6417,5.84943 24.5299,-7.17027 2.0756,-14.52922 4.7172,-3.58513 z" id="path6" />
		<path d="m 1396.3151,375.30685 19.8126,-1.13215 -1.1322,6.79288 0.1887,5.84944 -10.9441,-3.39643 z" id="path7" />
		<path d="m 1375.7477,334.92694 -2.6416,11.88754 3.5851,4.15121 0.3774,15.284 -9.6233,0.75475 -1.1321,-15.47268 6.9816,-4.33991 -4.1512,-5.47203 0.1887,-6.41551 z" id="path8" />
		<path d="m 1907.9753,618.0239 11.7414,19.21317 -0.1334,9.07291 -10.0069,4.66987 -5.2035,-8.80605 0.8005,-19.21317 z" id="path9" />
		<path d="m 2189.1015,494.73934 8.0055,18.14579 5.0701,-24.95045 -4.2696,-3.86932 z" id="path10" />
		<path d="m 2279.4301,338.89913 6.6713,-2.13482 10.4071,6.13754 1.6011,-8.53919 9.0729,-3.46903 -6.1376,-7.20495 -12.8087,-0.80055 -18.4127,-10.40715 3.4691,8.80605 0.2668,10.14029 4.0028,8.53919 2.9353,15.74413 6.4044,8.0055 -2.1348,19.21317 -8.2723,2.93534 -2.4017,10.94084 -22.4154,-0.80055 -9.6066,9.87346 v 3.73589 h 13.3425 l 16.8116,-5.07016 5.6038,9.6066 5.8707,-10.14029 10.9408,0.26686 12.2751,-3.73589 -0.5337,-8.53919 -3.7359,-11.74139 -1.6011,-10.40715 -6.1375,-14.40989 z" id="path11" />
		<path d="m 2247.675,434.4313 8.806,-0.80055 -2.1348,-19.21317 -12.0082,-1.33424 -2.6685,9.87343 z" id="path12" />
		<path d="m 2202.0266,540.41169 13.2084,2.26428 1.8869,16.98223 -4.9059,4.1512 5.2833,15.0953 16.6049,5.28336 13.9631,17.35958 -2.6417,9.43456 9.0572,14.34052 1.5096,15.85008 -7.5477,9.05719 -10.1893,-3.01908 -0.7548,-12.07622 -13.5858,-1.88693 8.3024,-6.79288 11.3215,-5.28336 -2.6416,-7.92501 -13.2084,10.18931 -3.3965,-10.18931 -4.906,-5.28336 -1.8869,-9.81194 15.4727,6.03811 -10.9441,-16.22746 -7.5476,7.92504 -11.3215,-12.83099 -6.0381,-20.75604 z" id="path13" />
		<path d="m 2020.5859,656.45027 68.5804,91.26259 12.5419,1.86793 2.6685,-26.9518 -13.3425,-12.27511 -12.5419,-18.14576 -21.8817,-17.07838 -16.8115,-18.94633 -10.9409,-1.86796 -8.0054,-5.60382 z" id="path14" />
		<path d="m 2099.5734,759.72108 68.5804,15.47728 79.5212,-1.6011 -77.6533,-3.20217 -20.0137,-10.67401 -12.5419,-4.53644 -1.0674,4.26961 -13.6094,-2.13482 -12.275,-6.67123 -8.8061,2.40165 z" id="path15" />
		<path d="m 2184.9653,639.90558 18.9463,15.21042 -11.4745,10.40715 2.9354,18.41261 5.8707,7.20495 -7.7387,2.40165 -8.0055,17.87893 -4.2696,19.74688 -12.0082,5.33699 -33.3562,-10.94083 -8.8061,-25.88443 1.868,-15.74414 13.3425,3.2022 1.0674,-10.40712 22.6822,-17.87893 z" id="path16" />
		<path d="m 2343.9224,713.63024 56.9848,23.02031 3.0191,10.18934 13.5857,7.92504 -6.4155,3.77381 20.7561,29.81322 -18.8691,-1.50953 -13.9632,-18.11435 -10.9441,-0.3774 -10.1893,10.94409 -14.7179,-1.8869 -8.3025,-9.05719 -11.3214,3.39645 7.925,-10.18934 -18.4917,-20.37863 -19.2465,-7.92504 4.1512,-9.81194 9.4345,5.66074 z" id="path17" />
		<path d="m 2137.1169,1000.4409 54.3431,-11.69884 24.9072,-12.45362 36.9835,-6.03814 17.3596,9.81194 3.7738,19.24651 21.1334,-19.62388 -0.3774,43.39903 17.3596,7.5476 50.5693,-7.925 42.2668,-46.04069 20.756,-32.83228 1.1322,-29.43582 -9.0572,-21.88818 -24.9072,-28.3037 -4.1513,-36.60611 -7.5476,-5.28333 -7.1703,-30.1906 -20.756,59.62642 -35.4739,-23.39771 12.4536,-23.39771 -33.2097,-6.41551 -24.5298,26.79417 -10.9441,1.8869 -6.7929,-7.92504 -27.1716,24.90727 -12.0762,1.13212 -4.5286,14.34055 -48.3049,20.75603 -19.6239,12.831 -3.3965,54.34309 z" id="path18" />
		<path d="m 2312.411,1049.5006 -3.6795,23.5864 28.0207,-21.1334 z" id="path19" />
		<path d="m 2432.23,1094.0317 72.8348,-47.5501 9.4345,9.0571 11.6989,-10.9441 -4.5286,-9.8119 19.2465,-19.2465 0.3774,-20.75603 7.925,25.66203 h 16.2275 l -10.1894,16.2274 -32.4549,18.8691 h -9.4345 l -67.5515,43.0216 z" id="path20" />
		<path d="m 1269.6709,394.40384 23.4827,5.33702 70.982,-13.34249 18.6795,-2.66851 1.0674,28.81977 33.0894,11.74138 5.337,10.14029 24.5501,9.07291 5.3371,-22.4154 17.612,-1.06738 18.1458,9.07288 29.8872,9.07288 11.7414,-7.47178 10.674,2.13479 5.3369,18.67948 21.348,44.83076 15.4773,44.83074 43.2296,50.16775 1.6011,14.40989 56.5722,-7.4718 3.2022,13.87617 -16.011,42.16226 -54.971,61.37545 -19.2132,30.95455 10.1403,46.43184 2.6685,35.22416 -33.6231,30.95458 -13.8762,11.20767 4.8033,39.49378 -21.8816,16.01096 -2.1349,22.41537 -46.9655,44.83076 -51.7688,3.73589 -20.2806,-51.76885 -11.7414,-25.08385 -1.0674,-28.28607 -20.8143,-36.82526 6.4044,-40.56116 10.1403,-16.01097 -5.8707,-19.21319 1.6011,-8.53919 -32.022,-59.77432 4.2696,-39.49377 -24.0164,-6.93809 -13.3425,-16.01097 -20.8143,-1.6011 -27.7524,13.87618 -9.6066,-3.73589 -33.623,7.47178 -42.696,-29.88715 -6.4044,-17.07838 -15.4772,-16.01099 -9.0729,-27.75236 11.2076,-27.21869 -5.3369,-27.75236 33.623,-53.90364 24.0165,-20.28058 -0.5337,-20.28058 25.0839,-18.14578 6.9381,-10.67398 z" id="path21" />
		<path d="m 1673.6813,804.81867 8.2723,28.28608 -10.9408,25.88442 -19.7469,56.3053 -13.8762,3.73589 -9.6065,-6.13754 -3.2022,-25.08388 9.0728,-17.34524 -4.5364,-21.34795 7.205,-11.74139 20.0137,-6.67126 15.4772,-28.01922 z" id="path22" />
		<path d="m 1193.8856,162.77832 18.1457,5.60384 32.022,-14.14304 -9.0729,-9.60658 -35.7579,6.93809 -4.8033,-6.93809 -9.3397,7.20494 z" id="path23" />
	</g>
	<defs id="defs1" />
	<g inkscape:groupmode="layer" id="layer4" inkscape:label="body">
		<g id="g23" inkscape:label="asie">
			<ellipse id="path1-27" cx="1698.0183" cy="488.91669" rx="9" ry="9" />
			<ellipse id="path1-28" cx="1721.0833" cy="503.57404" rx="9" ry="9" />
			<ellipse id="path1-67" cx="2083.8804" cy="671.80994" rx="9" ry="9" />
			<ellipse id="path1-1468" cx="1898.1254" cy="601.51434" rx="9" ry="9" />
			<ellipse id="path1-48" cx="2200.7588" cy="499.284" rx="9" ry="9" />
			<ellipse id="path1-59" cx="2299.8325" cy="397.65277" rx="9" ry="9" />
			<ellipse id="path1-274" cx="2253.8176" cy="428.0217" rx="9" ry="9" />
			<ellipse id="path1-41" cx="2139.2021" cy="360.92441" rx="9" ry="9" />
			<ellipse id="path1-94" cx="2183.217" cy="439.40723" rx="9" ry="9" />
			<ellipse id="path1-254" cx="2068.8789" cy="588.51703" rx="9" ry="9" />
			<ellipse id="path1-38" cx="2145.667" cy="986.80566" rx="9" ry="9" />
			<ellipse id="path1-36" cx="2341.1545" cy="1022.2625" rx="9" ry="9" />
			<ellipse id="path1-714" cx="2380.4143" cy="990.62286" rx="9" ry="9" />
			<ellipse id="path1-46" cx="2306.531" cy="995.65894" rx="9" ry="9" />
			<ellipse id="path1-65" cx="2423.5344" cy="926.95312" rx="9" ry="9" />
		</g>
		<g id="g24" inkscape:label="evropa">
			<ellipse id="path1-146" cx="1414.1034" cy="282.45657" rx="9" ry="9" />
			<ellipse id="path1-2" cx="1349.1134" cy="275.53186" rx="9" ry="9" />
			<ellipse id="path1-95" cx="1337.3496" cy="290.62039" rx="9" ry="9" />
			<ellipse id="path1-30" cx="1366.6705" cy="307.30106" rx="9" ry="9" />
			<ellipse id="path1-71" cx="1321.1354" cy="323.56662" rx="9" ry="9" />
			<ellipse id="path1-25" cx="1287.6757" cy="365.88577" rx="9" ry="9" />
			<ellipse id="path1-0" cx="1249.8538" cy="373.59802" rx="9" ry="9" />
			<ellipse id="path1-47" cx="1257.3127" cy="421.41504" rx="9" ry="9" />
			<ellipse id="path1-70" cx="1401.2201" cy="338.61292" rx="9" ry="9" />
			<ellipse id="path1-91" cx="1545.635" cy="371.21756" rx="9" ry="9" />
			<ellipse id="path1-5" cx="1472.5626" cy="357.45157" rx="9" ry="9" />
			<ellipse id="path1-668" cx="1486.8315" cy="317.51862" rx="9" ry="9" />
			<ellipse id="path1-33" cx="1447.8945" cy="306.01965" rx="9" ry="9" />
			<ellipse id="path1-31" cx="1398.496" cy="257.2742" rx="9" ry="9" />
			<ellipse id="path1-40" cx="1302.4938" cy="236.88025" rx="9" ry="9" />
			<ellipse id="path1-42" cx="1395.141" cy="218.70058" rx="9" ry="9" />
			<ellipse id="path1-11" cx="1395.0781" cy="194.41098" rx="9" ry="9" />
			<ellipse id="path1-20" cx="1377.0073" cy="171.72934" rx="9" ry="9" />
			<ellipse id="path1-68" cx="1429.7675" cy="166.73454" rx="9" ry="9" />
			<ellipse id="path1-16" cx="1418.8477" cy="304.10568" rx="9" ry="9" />
		</g>
		<g id="g25" inkscape:label="amerika">
			<ellipse id="ellipse42" cx="499.63864" cy="287.80521" rx="9" ry="9" />
			<ellipse id="path1-1" cx="549.72107" cy="261.61829" rx="9" ry="9" />
			<ellipse id="path1-8" cx="790.18958" cy="309.34357" rx="9" ry="9" />
			<ellipse id="path1-6" cx="792.37488" cy="356.61261" rx="9" ry="9" />
			<ellipse id="path1-66" cx="470.83041" cy="322.10611" rx="9" ry="9" />
			<ellipse id="path1-88" cx="454.44562" cy="378.40549" rx="9" ry="9" />
			<ellipse id="path1-10" cx="468.79916" cy="412.60599" rx="9" ry="9" />
			<ellipse id="path1-80" cx="512.96869" cy="420.50894" rx="9" ry="9" />
			<ellipse id="path1-3" cx="563.93683" cy="374.62796" rx="9" ry="9" />
			<ellipse id="path1-4" cx="607.09216" cy="451.88913" rx="9" ry="9" />
			<ellipse id="path1-7" cx="717.66663" cy="433.90063" rx="9" ry="9" />
			<ellipse id="path1-9" cx="760.64685" cy="399.12912" rx="9" ry="9" />
			<ellipse id="path1-14" cx="694.84894" cy="410.35538" rx="9" ry="9" />
			<ellipse id="path1-82" cx="676.02679" cy="380.07941" rx="9" ry="9" />
			<ellipse id="path1-84" cx="664.52612" cy="350.66498" rx="9" ry="9" />
		</g>
	</g>
	<g inkscape:groupmode="layer" id="layer1" inkscape:label="spojky">
		<path d="m 1414.0111,282.12378 5.6538,22.61512 -17.8094,33.64 46.0783,-32.79193 39.5765,11.87294 -14.4172,39.29377 72.3684,15.26522 151.8041,116.75062 23.7459,15.26522 177.1573,97.83828 170.3075,-14.19227 15.3667,84.27135 60.9918,315.11168 162.7116,7.19608 32.7822,28.38454 39.9783,-33.18194 43.1765,-61.96631 -223.0788,-427.76764 -17.1906,-59.16784 -44.3759,-80.35634 115.1374,68.36285 46.7746,-29.58393 449.2145,-99.4741" pathLength="1" id="path42"/>
		<path d="m 0,345.41235 550.90073,-83.15482 -50.97233,26.38566 -29.18412,33.98155 -16.59099,55.17001 14.79196,34.78112 44.57578,7.79577 50.97232,-45.77514 43.77621,77.75776 56.16948,-102.34441 11.19391,30.78329 19.58938,29.78381 22.78761,24.18685 42.77675,-35.18087 31.18308,-42.97664 -1.59914,-47.37428 467.34617,112.53887 -7.396,-48.57363 37.7794,-6.7963 33.182,-43.17653 45.5753,-16.99078 -29.9838,-16.79088 12.3933,-14.79195 -45.975,-39.17873 71.9609,-63.96525 56.3694,-5.99674 -36.78,27.58501 v 25.18632 l 4.7974,38.77893 14.3714,25.08107" pathLength="1" id="path43" />
	</g>
</svg>
